<svg width="79" height="76" viewBox="0 0 79 76" fill="none" xmlns="http://www.w3.org/2000/svg">
<path d="M79 6.5L38 0V21.5H48V75.5H79V6.5Z" fill="#0F3063"/>
<path d="M61 21.5H56V61H61V21.5Z" fill="white"/>
<path d="M71 21H66V67H71V21Z" fill="white"/>
<path d="M43 26.5H18V76H43V26.5Z" fill="#0F3063"/>
<path d="M35 34H26V39H35V34Z" fill="white"/>
<path d="M35 44H26V49H35V44Z" fill="white"/>
<path d="M35 54H26V59H35V54Z" fill="white"/>
<path d="M13 39H0V76H13V39Z" fill="#0F3063"/>
<path d="M17 60H8V65H17V60Z" fill="white"/>
<path d="M17 50H8V55H17V50Z" fill="white"/>
</svg>
