<svg width="79" height="77" viewBox="0 0 79 77" fill="none" xmlns="http://www.w3.org/2000/svg">
<path d="M79 7.29932L38 0.799316V22.2993H48V76.2993H79V7.29932Z" fill="white"/>
<path d="M61 22.2993H56V61.7993H61V22.2993Z" fill="#0F3063"/>
<path d="M71 21.7993H66V67.7993H71V21.7993Z" fill="#0F3063"/>
<path d="M43 27.2993H18V76.7993H43V27.2993Z" fill="white"/>
<path d="M35 34.7993H26V39.7993H35V34.7993Z" fill="#0F3063"/>
<path d="M35 44.7993H26V49.7993H35V44.7993Z" fill="#0F3063"/>
<path d="M35 54.7993H26V59.7993H35V54.7993Z" fill="#0F3063"/>
<path d="M13 39.7993H0V76.7993H13V39.7993Z" fill="white"/>
<path d="M17 60.7993H8V65.7993H17V60.7993Z" fill="#0F3063"/>
<path d="M17 50.7993H8V55.7993H17V50.7993Z" fill="#0F3063"/>
</svg>
